<?xml version="1.0" encoding="UTF-8"?>
<svg id="Layer_2" data-name="Layer 2" xmlns="http://www.w3.org/2000/svg" viewBox="0 0 96.62 55.08">
  <defs>
    <style>
      .cls-1 {
        fill: #5f429a;
      }

      .cls-2 {
        fill: #674ea0;
      }

      .cls-3 {
        fill: #6e56a4;
      }

      .cls-4 {
        fill: #725ea8;
      }

      .cls-5 {
        fill: #532e90;
      }
    </style>
  </defs>
  <g id="Layer_1-2" data-name="Layer 1">
    <g>
      <path class="cls-4" d="m4.32,41.37c-1.71,0-3.29-.71-3.29-2.22,0-.43.14-.85.34-1.37l4.53-9.88c.62-1.37,1.3-1.84,3.29-1.84h15.63l-5.76-12.53-3.5,8.32c-.55,1.28-1.99,1.84-3.36,1.84-1.65,0-3.29-.8-3.29-2.22,0-.28.14-.61.27-.99l5.76-12.63c.55-1.28,2.06-2.13,4.32-2.13s3.63.85,4.25,2.13l9.53,20.66c.14.28.21.57.21.8,0,.95-.96,1.65-2.4,1.65H11.79l-3.77,8.42c-.62,1.47-2.13,1.99-3.7,1.99Zm24.55-5.82c0-1.61,1.85-2.41,3.57-2.41,1.92,0,3.15.61,3.77,2.03l1.17,2.6c.21.47.34.95.34,1.32,0,1.56-1.65,2.27-3.5,2.27-1.65,0-3.09-.47-3.77-1.89l-1.23-2.65c-.21-.47-.34-.9-.34-1.28Z"/>
      <g>
        <path class="cls-3" d="m49.7,20.43h-6.51c-1.13,0-1.95-.37-1.95-1.1s.82-1.1,1.95-1.1h4.13v-.57c0-1.78-1.95-2.26-3.86-2.26s-3.86.48-3.86,2.26v.18c0,.66-.86,1.14-2.03,1.14s-2.03-.48-2.03-1.14v-.18c0-3.04,3.59-4.51,7.91-4.51s7.91,1.46,7.91,4.51v1.74c0,.73-.47,1.03-1.68,1.03Zm-14.15,1.03v-.18c0-.66.86-1.14,2.03-1.14s2.03.48,2.03,1.14v.18c0,1.53,1.91,1.94,3.86,1.94h5.46c1.13,0,1.95.5,1.95,1.17s-.82,1.17-1.95,1.17h-5.46c-4.33,0-7.91-1.4-7.91-4.28Z"/>
        <path class="cls-2" d="m72.07,17.67v.18c0,.66-.86,1.14-2.03,1.14s-2.03-.48-2.03-1.14v-.18c0-1.78-1.95-2.26-3.94-2.26s-3.94.48-3.94,2.26v.18c0,.66-.86,1.14-2.03,1.14s-2.03-.48-2.03-1.14v-.18c0-3.04,3.62-4.51,7.99-4.51s7.99,1.46,7.99,4.51Zm-15.98,3.8v-.18c0-.66.86-1.14,2.03-1.14s2.03.48,2.03,1.14v.18c0,1.78,1.99,2.26,3.94,2.26s3.94-.48,3.94-2.26v-.18c0-.66.86-1.14,2.03-1.14s2.03.48,2.03,1.14v.18c0,3.04-3.62,4.51-7.99,4.51s-7.99-1.46-7.99-4.51Z"/>
        <path class="cls-1" d="m79.7,13.39h6c5.5,0,7.76,1.14,7.76,4.53v6.68c0,.66-.9,1.14-2.03,1.14s-2.03-.48-2.03-1.14v-6.34c0-1.85-.35-2.49-4.29-2.49h-5.42c-1.21,0-2.03-.48-2.03-1.19s.82-1.19,2.03-1.19Zm2.03,4.67v6.54c0,.66-.9,1.14-2.03,1.14s-2.03-.48-2.03-1.14v-6.54c0-.66.9-1.14,2.03-1.14s2.03.48,2.03,1.14Z"/>
      </g>
      <g>
        <path class="cls-5" d="m46.38,32.93h-2.53c-.21,0-.38.01-.51.04-.13.03-.24.09-.31.19s-.13.24-.15.43c-.03.19-.04.44-.04.76v5.06h-1.68v-5.35c0-.82.2-1.42.59-1.79.39-.37.98-.55,1.76-.55h2.88v1.21Z"/>
        <path class="cls-5" d="m50.94,29.71v2h2.18v1.21h-2.18v4.19c0,.26,0,.47.03.62s.07.26.15.33c.08.07.21.12.37.13.16.02.39.02.69.02v1.19h-1.13c-.36,0-.66-.03-.89-.09s-.42-.17-.55-.32c-.14-.15-.23-.36-.29-.62-.05-.26-.08-.6-.08-1.01v-4.44h-1.61v-1.21h1.61v-2h1.7Z"/>
        <path class="cls-5" d="m57.83,31.71v6.5h1.88v1.19h-5.48v-1.19h1.92v-5.29h-1.92v-1.21h3.59Zm.15-2.45v1.49h-1.98v-1.49h1.98Z"/>
        <path class="cls-5" d="m62.44,31.71c0-.5.03-.91.1-1.23s.17-.56.31-.74c.14-.18.33-.3.55-.37.22-.07.49-.1.81-.1h2.12v1.21h-1.53c-.12,0-.23.02-.32.05-.09.03-.16.09-.22.19s-.1.22-.12.38-.04.37-.04.62h1.51v1.21h-1.51v6.48h-1.67v-6.48h-1.59v-1.21h1.59Z"/>
        <path class="cls-5" d="m71.29,31.71c.33,0,.61.04.84.11.23.07.41.2.56.38.14.18.25.42.31.73.06.31.1.69.1,1.16v5.32h-4.22c-.23,0-.44-.06-.63-.18-.19-.12-.36-.29-.5-.5-.14-.21-.25-.46-.32-.76s-.11-.61-.11-.95.04-.65.11-.95.18-.55.32-.77.31-.39.5-.52c.19-.12.4-.19.63-.19h2.54v-.66c0-.4-.05-.67-.15-.8-.1-.14-.27-.2-.5-.2h-2.59v-1.21h3.11Zm-1.23,4.06c-.22,0-.41.02-.55.06-.14.04-.26.11-.34.2-.08.09-.14.21-.17.35-.03.14-.05.32-.05.53,0,.87.14,1.31.43,1.31h2.03v-2.45h-1.35Z"/>
        <path class="cls-5" d="m79.55,31.71v1.21h-3.11c-.13,0-.24.02-.32.06-.09.04-.15.11-.2.2-.05.1-.08.23-.1.4s-.03.38-.03.64v2.8c0,.62.12.99.36,1.12.12.06.49.1,1.14.1.12,0,.27,0,.45,0,.18,0,.42,0,.7,0h1.13v1.19h-3.67c-.32,0-.59-.04-.82-.13s-.41-.23-.56-.43c-.14-.2-.25-.45-.32-.77-.07-.32-.1-.72-.1-1.19v-2.66c0-.46.03-.86.1-1.18.07-.32.17-.58.32-.77.14-.2.33-.34.56-.43.23-.09.5-.13.82-.13h3.67Z"/>
        <path class="cls-5" d="m84,29.71v2h2.18v1.21h-2.18v4.19c0,.26,0,.47.03.62s.07.26.15.33c.08.07.21.12.37.13.16.02.39.02.69.02v1.19h-1.13c-.36,0-.66-.03-.89-.09s-.42-.17-.55-.32c-.14-.15-.23-.36-.29-.62-.05-.26-.08-.6-.08-1.01v-4.44h-1.61v-1.21h1.61v-2h1.7Z"/>
        <path class="cls-5" d="m92.49,31.71v1.21h-3.32c-.19,0-.33.07-.44.2-.1.14-.16.37-.16.71,0,.61.2.91.6.91h2.28c.25,0,.46.06.65.17.19.12.35.27.48.47.13.2.23.43.3.7.07.27.1.56.1.87,0,.78-.13,1.38-.4,1.81-.27.43-.66.64-1.19.64h-4.05v-1.19h3.69c.14,0,.26-.08.35-.24.09-.16.13-.41.13-.74s-.04-.58-.13-.73-.2-.23-.35-.23h-2.37c-.26,0-.49-.06-.68-.17-.19-.12-.35-.28-.48-.49-.13-.21-.22-.45-.29-.74-.06-.28-.1-.59-.1-.92,0-.7.14-1.25.41-1.65.27-.4.7-.59,1.27-.59h3.7Z"/>
      </g>
      <path class="cls-5" d="m2.06,42.6h37v3H2.06c-.55,0-1-.45-1-1v-1c0-.55.45-1,1-1Z"/>
      <rect class="cls-1" x="39.06" y="42.6" width="16" height="3"/>
      <rect class="cls-2" x="55.06" y="42.6" width="19" height="3"/>
      <path class="cls-4" d="m73.06,42.6h19c.55,0,1,.45,1,1v1c0,.55-.45,1-1,1h-19v-3h0Z"/>
    </g>
  </g>
</svg>